<?xml version="1.0" encoding="utf-8"?>
<!-- Generator: Adobe Illustrator 17.0.0, SVG Export Plug-In . SVG Version: 6.00 Build 0)  -->
<!DOCTYPE svg PUBLIC "-//W3C//DTD SVG 1.1//EN" "http://www.w3.org/Graphics/SVG/1.1/DTD/svg11.dtd">
<svg version="1.1" id="Layer_1" xmlns="http://www.w3.org/2000/svg" xmlns:xlink="http://www.w3.org/1999/xlink" x="0px" y="0px"
	 width="939.626px" height="493.273px" viewBox="0 0 939.626 493.273" enable-background="new 0 0 939.626 493.273"
	 xml:space="preserve">
<g>
	<path fill="#FFFFFF" d="M106.751,182.889v-45.258h10.415v16.243c1.488-2.479,4.836-4.216,8.618-4.216
		c7.439,0,11.407,4.774,11.407,12.275v20.955h-10.415v-19.343c0-2.976-1.551-4.836-4.712-4.836c-2.666,0-4.898,1.24-4.898,4.96
		v19.219H106.751z"/>
	<path fill="#FFFFFF" d="M153.002,169.932v0.744c0,3.224,1.922,5.642,5.579,5.642c2.914,0,4.588-1.488,5.271-3.101h9.175
		c-1.115,6.014-7.067,10.416-14.445,10.416c-9.361,0-15.623-5.394-15.623-14.693v-4.029c0-9.052,5.519-15.252,15.376-15.252
		s14.879,6.572,14.879,14.321v5.952H153.002z M153.002,163.856h10.663v-1.178c0-3.224-1.611-5.642-5.27-5.642
		c-3.782,0-5.394,2.418-5.394,6.138V163.856z"/>
	<path fill="#FFFFFF" d="M188.217,169.932v0.744c0,3.224,1.922,5.642,5.579,5.642c2.914,0,4.588-1.488,5.271-3.101h9.175
		c-1.115,6.014-7.067,10.416-14.445,10.416c-9.361,0-15.623-5.394-15.623-14.693v-4.029c0-9.052,5.519-15.252,15.376-15.252
		s14.879,6.572,14.879,14.321v5.952H188.217z M188.217,163.856h10.663v-1.178c0-3.224-1.611-5.642-5.27-5.642
		c-3.782,0-5.394,2.418-5.394,6.138V163.856z"/>
	<path fill="#FFFFFF" d="M215.063,182.889v-45.258h10.416v45.258H215.063z"/>
	<path fill="#FFFFFF" d="M233.228,182.889v-45.258h10.415v16.243c1.488-2.479,4.836-4.216,8.618-4.216
		c7.439,0,11.407,4.774,11.407,12.275v20.955h-10.415v-19.343c0-2.976-1.551-4.836-4.712-4.836c-2.666,0-4.898,1.24-4.898,4.96
		v19.219H233.228z"/>
	<path fill="#FFFFFF" d="M301.053,168.816c0,8.556-5.703,14.817-15.809,14.817s-15.81-6.262-15.81-14.817v-4.34
		c0-8.556,5.704-14.817,15.81-14.817s15.809,6.262,15.809,14.817V168.816z M285.245,157.905c-3.968,0-5.704,2.728-5.704,6.014v5.455
		c0,3.286,1.736,6.014,5.704,6.014s5.703-2.728,5.703-6.014v-5.455C290.948,160.632,289.213,157.905,285.245,157.905z"/>
	<path fill="#FFFFFF" d="M336.952,150.403v32.486h-9.981v-3.782c-1.674,2.977-4.897,4.526-9.052,4.526
		c-7.253,0-11.097-4.773-11.097-12.275v-20.955h10.415v19.653c0,2.976,1.488,4.836,4.464,4.836c2.666,0,4.836-1.24,4.836-4.96
		v-19.529H336.952z"/>
	<path fill="#FFFFFF" d="M357.35,183.633c-8.617,0-14.321-3.844-14.321-10.416v-0.682h9.176v0.434c0,2.294,2.108,3.473,5.208,3.473
		c2.79,0,4.897-0.992,4.897-2.853c0-1.178-0.558-1.859-2.17-2.231l-8.989-2.046c-5.021-1.116-7.626-4.154-7.626-8.741
		c0-7.006,5.58-10.912,13.453-10.912c7.688,0,13.206,3.968,13.206,10.478v0.559h-8.99v-0.559c0-1.983-1.178-3.285-4.092-3.285
		c-2.665,0-3.905,0.867-3.905,2.665c0,1.24,0.62,1.86,2.046,2.17l9.485,2.294c4.401,1.054,7.13,3.844,7.13,8.308
		C371.858,178.797,366.03,183.633,357.35,183.633z"/>
	<path fill="#FFFFFF" d="M386.119,169.932v0.744c0,3.224,1.922,5.642,5.579,5.642c2.914,0,4.588-1.488,5.271-3.101h9.175
		c-1.115,6.014-7.067,10.416-14.445,10.416c-9.361,0-15.623-5.394-15.623-14.693v-4.029c0-9.052,5.519-15.252,15.376-15.252
		s14.879,6.572,14.879,14.321v5.952H386.119z M386.119,163.856h10.663v-1.178c0-3.224-1.611-5.642-5.27-5.642
		c-3.782,0-5.394,2.418-5.394,6.138V163.856z"/>
	<path fill="#FFFFFF" d="M496.646,169.808v13.081h-10.663v-43.397h18.537c10.23,0,16.862,5.89,16.862,15.003
		s-6.757,15.313-16.862,15.313H496.646z M503.9,148.357h-7.254v12.586h7.254c4.712,0,6.819-2.729,6.819-6.448
		S508.612,148.357,503.9,148.357z"/>
	<path fill="#FFFFFF" d="M532.11,136.702c3.472,0,5.766,2.108,5.766,5.394c0,3.286-2.294,5.394-5.766,5.394
		s-5.766-2.107-5.766-5.394C526.344,138.81,528.638,136.702,532.11,136.702z M526.902,182.889v-32.486h10.416v32.486H526.902z"/>
	<path fill="#FFFFFF" d="M543.704,168.754v-4.216c0-8.618,5.642-14.88,15.871-14.88c8.928,0,15.065,5.518,15.252,13.268h-9.424
		c-0.187-2.666-1.984-5.021-5.642-5.021c-3.844,0-5.642,2.418-5.642,6.014v5.455c0,3.596,1.798,6.014,5.642,6.014
		c3.657,0,5.455-2.355,5.642-5.021h9.424c-0.187,7.75-6.324,13.268-15.252,13.268C549.345,183.633,543.704,177.372,543.704,168.754z
		"/>
	<path fill="#FFFFFF" d="M592.806,141.662v8.741h6.262v8.06h-6.262v13.825c0,1.488,0.744,2.17,2.356,2.17h3.409v8.432h-6.881
		c-6.2,0-9.3-3.658-9.3-9.609v-14.817h-4.216v-8.06h4.216v-8.741H592.806z"/>
	<path fill="#FFFFFF" d="M634.656,150.403v32.486h-9.981v-3.782c-1.674,2.977-4.897,4.526-9.052,4.526
		c-7.253,0-11.097-4.773-11.097-12.275v-20.955h10.415v19.653c0,2.976,1.488,4.836,4.464,4.836c2.666,0,4.836-1.24,4.836-4.96
		v-19.529H634.656z"/>
	<path fill="#FFFFFF" d="M661.316,160.384h-1.363c-4.836,0-7.44,1.984-7.44,7.626v14.879h-10.415v-32.486h9.857v5.704
		c0.992-4.836,4.216-5.952,8.865-5.952h0.496V160.384z"/>
	<path fill="#FFFFFF" d="M674.895,169.932v0.744c0,3.224,1.922,5.642,5.579,5.642c2.914,0,4.588-1.488,5.271-3.101h9.175
		c-1.115,6.014-7.067,10.416-14.445,10.416c-9.361,0-15.623-5.394-15.623-14.693v-4.029c0-9.052,5.519-15.252,15.376-15.252
		s14.879,6.572,14.879,14.321v5.952H674.895z M674.895,163.856h10.663v-1.178c0-3.224-1.611-5.642-5.27-5.642
		c-3.782,0-5.394,2.418-5.394,6.138V163.856z"/>
	<path fill="#FFFFFF" d="M714.264,183.633c-8.617,0-14.321-3.844-14.321-10.416v-0.682h9.176v0.434c0,2.294,2.108,3.473,5.208,3.473
		c2.79,0,4.897-0.992,4.897-2.853c0-1.178-0.558-1.859-2.17-2.231l-8.989-2.046c-5.021-1.116-7.626-4.154-7.626-8.741
		c0-7.006,5.58-10.912,13.453-10.912c7.688,0,13.206,3.968,13.206,10.478v0.559h-8.99v-0.559c0-1.983-1.178-3.285-4.092-3.285
		c-2.665,0-3.905,0.867-3.905,2.665c0,1.24,0.62,1.86,2.046,2.17l9.485,2.294c4.401,1.054,7.13,3.844,7.13,8.308
		C728.772,178.797,722.944,183.633,714.264,183.633z"/>
</g>
</svg>
