<?xml version="1.0" encoding="utf-8"?>
<!-- Generator: Adobe Illustrator 17.0.0, SVG Export Plug-In . SVG Version: 6.00 Build 0)  -->
<!DOCTYPE svg PUBLIC "-//W3C//DTD SVG 1.1//EN" "http://www.w3.org/Graphics/SVG/1.1/DTD/svg11.dtd">
<svg version="1.1" id="Layer_1" xmlns="http://www.w3.org/2000/svg" xmlns:xlink="http://www.w3.org/1999/xlink" x="0px" y="0px"
	 width="785.222px" height="326.646px" viewBox="0 0 785.222 326.646" enable-background="new 0 0 785.222 326.646"
	 xml:space="preserve">
<g>
	<path fill="#FFFFFF" d="M469.555,20.415V306.23H20.415V20.415H469.555 M489.971,0H0v326.646h489.971V0L489.971,0z"/>
	<g>
		<path fill="#FFFFFF" d="M92.318,84.311l5.796-30.579h11.259l-11.192,46.634H87.455l-9.193-32.577l-9.193,32.577H58.342
			L47.15,53.732h11.259l5.796,30.579l8.727-30.579h10.659L92.318,84.311z"/>
		<path fill="#FFFFFF" d="M114.704,100.366V51.734h11.192v17.454c1.599-2.665,5.196-4.53,9.26-4.53
			c7.994,0,12.258,5.129,12.258,13.19v22.518h-11.192V79.581c0-3.198-1.666-5.197-5.063-5.197c-2.865,0-5.263,1.333-5.263,5.33
			v20.652C125.896,100.366,114.704,100.366,114.704,100.366z"/>
		<path fill="#FFFFFF" d="M164.401,86.443v0.799c0,3.464,2.065,6.062,5.996,6.062c3.131,0,4.93-1.599,5.663-3.331h9.86
			c-1.199,6.462-7.595,11.192-15.522,11.192c-10.06,0-16.788-5.796-16.788-15.789v-4.331c0-9.727,5.929-16.388,16.521-16.388
			c10.593,0,15.989,7.062,15.989,15.389v6.396L164.401,86.443L164.401,86.443z M164.401,79.914h11.459v-1.266
			c0-3.464-1.732-6.062-5.663-6.062c-4.064,0-5.796,2.598-5.796,6.595V79.914z"/>
		<path fill="#FFFFFF" d="M202.242,86.443v0.799c0,3.464,2.065,6.062,5.996,6.062c3.131,0,4.93-1.599,5.663-3.331h9.86
			c-1.199,6.462-7.595,11.192-15.522,11.192c-10.06,0-16.788-5.796-16.788-15.789v-4.331c0-9.727,5.929-16.388,16.521-16.388
			c10.593,0,15.989,7.062,15.989,15.389v6.396L202.242,86.443L202.242,86.443z M202.242,79.914H213.7v-1.266
			c0-3.464-1.732-6.062-5.663-6.062c-4.064,0-5.796,2.598-5.796,6.595L202.242,79.914L202.242,79.914z"/>
		<path fill="#FFFFFF" d="M231.088,100.366V51.734h11.192v48.632H231.088z"/>
		<path fill="#FFFFFF" d="M250.607,100.366V51.734H261.8v17.454c1.599-2.665,5.196-4.53,9.26-4.53
			c7.994,0,12.258,5.129,12.258,13.19v22.518h-11.192V79.581c0-3.198-1.666-5.197-5.063-5.197c-2.864,0-5.263,1.333-5.263,5.33
			v20.652C261.8,100.366,250.607,100.366,250.607,100.366z"/>
		<path fill="#FFFFFF" d="M323.489,85.244c0,9.193-6.129,15.922-16.988,15.922s-16.988-6.729-16.988-15.922V80.58
			c0-9.193,6.129-15.922,16.988-15.922s16.988,6.729,16.988,15.922V85.244z M306.501,73.519c-4.264,0-6.129,2.931-6.129,6.462v5.863
			c0,3.531,1.865,6.462,6.129,6.462s6.129-2.931,6.129-6.462V79.98C312.63,76.45,310.765,73.519,306.501,73.519z"/>
		<path fill="#FFFFFF" d="M362.063,65.458v34.909h-10.726v-4.064c-1.799,3.198-5.263,4.863-9.727,4.863
			c-7.794,0-11.925-5.129-11.925-13.19V65.458h11.192v21.118c0,3.198,1.599,5.197,4.796,5.197c2.865,0,5.196-1.333,5.196-5.33
			V65.458H362.063z"/>
		<path fill="#FFFFFF" d="M383.981,101.166c-9.26,0-15.389-4.13-15.389-11.192v-0.733h9.859v0.466c0,2.465,2.265,3.73,5.596,3.73
			c2.998,0,5.263-1.065,5.263-3.064c0-1.266-0.6-1.999-2.332-2.398l-9.66-2.199c-5.396-1.199-8.194-4.463-8.194-9.394
			c0-7.528,5.996-11.725,14.457-11.725c8.261,0,14.19,4.264,14.19,11.258v0.6h-9.66v-0.6c0-2.132-1.266-3.531-4.397-3.531
			c-2.865,0-4.197,0.933-4.197,2.865c0,1.333,0.667,1.999,2.199,2.332l10.193,2.465c4.73,1.132,7.661,4.13,7.661,8.927
			C399.57,95.969,393.308,101.166,383.981,101.166z"/>
		<path fill="#FFFFFF" d="M414.893,86.443v0.799c0,3.464,2.065,6.062,5.996,6.062c3.131,0,4.93-1.599,5.663-3.331h9.86
			c-1.199,6.462-7.595,11.192-15.522,11.192c-10.06,0-16.788-5.796-16.788-15.789v-4.331c0-9.727,5.929-16.388,16.521-16.388
			c10.593,0,15.989,7.062,15.989,15.389v6.396L414.893,86.443L414.893,86.443z M414.893,79.914h11.458v-1.266
			c0-3.464-1.732-6.062-5.663-6.062c-4.064,0-5.796,2.598-5.796,6.595L414.893,79.914L414.893,79.914z"/>
	</g>
	<g>
		<path fill="#FFFFFF" d="M533.66,86.31v14.057h-11.458V53.732h19.919c10.993,0,18.121,6.329,18.121,16.122
			s-7.261,16.455-18.121,16.455L533.66,86.31L533.66,86.31z M541.454,63.259h-7.794v13.524h7.794c5.063,0,7.328-2.931,7.328-6.928
			C548.782,65.857,546.517,63.259,541.454,63.259z"/>
		<path fill="#FFFFFF" d="M571.766,50.734c3.731,0,6.196,2.265,6.196,5.796s-2.465,5.796-6.196,5.796
			c-3.73,0-6.196-2.265-6.196-5.796S568.036,50.734,571.766,50.734z M566.17,100.366V65.458h11.192v34.909H566.17V100.366z"/>
		<path fill="#FFFFFF" d="M584.224,85.177v-4.53c0-9.26,6.062-15.988,17.055-15.988c9.593,0,16.188,5.929,16.388,14.256h-10.126
			c-0.2-2.865-2.132-5.396-6.062-5.396c-4.13,0-6.062,2.598-6.062,6.462v5.863c0,3.864,1.932,6.462,6.062,6.462
			c3.931,0,5.862-2.532,6.062-5.396h10.126c-0.2,8.327-6.795,14.256-16.388,14.256C590.286,101.166,584.224,94.437,584.224,85.177z"
			/>
		<path fill="#FFFFFF" d="M636.987,56.064v9.394h6.729v8.661h-6.729v14.856c0,1.599,0.799,2.332,2.532,2.332h3.664v9.061h-7.395
			c-6.662,0-9.993-3.931-9.993-10.326V74.118h-4.53v-8.661h4.53v-9.394h11.192V56.064z"/>
		<path fill="#FFFFFF" d="M681.955,65.458v34.909h-10.726v-4.064c-1.799,3.198-5.263,4.863-9.727,4.863
			c-7.794,0-11.925-5.129-11.925-13.19V65.458h11.192v21.118c0,3.198,1.599,5.197,4.797,5.197c2.864,0,5.196-1.333,5.196-5.33
			V65.458H681.955z"/>
		<path fill="#FFFFFF" d="M710.603,76.183h-1.466c-5.196,0-7.994,2.132-7.994,8.194v15.989H689.95V65.458h10.593v6.129
			c1.065-5.196,4.53-6.396,9.526-6.396h0.533L710.603,76.183L710.603,76.183z"/>
		<path fill="#FFFFFF" d="M725.193,86.443v0.799c0,3.464,2.065,6.062,5.995,6.062c3.132,0,4.931-1.599,5.663-3.331h9.859
			c-1.199,6.462-7.595,11.192-15.522,11.192c-10.06,0-16.788-5.796-16.788-15.789v-4.331c0-9.727,5.93-16.388,16.522-16.388
			s15.988,7.062,15.988,15.389v6.396L725.193,86.443L725.193,86.443z M725.193,79.914h11.458v-1.266
			c0-3.464-1.731-6.062-5.662-6.062c-4.064,0-5.796,2.598-5.796,6.595V79.914z"/>
		<path fill="#FFFFFF" d="M767.497,101.166c-9.261,0-15.39-4.13-15.39-11.192v-0.733h9.86v0.466c0,2.465,2.265,3.73,5.596,3.73
			c2.998,0,5.263-1.065,5.263-3.064c0-1.266-0.6-1.999-2.331-2.398l-9.66-2.199c-5.396-1.199-8.194-4.463-8.194-9.394
			c0-7.528,5.996-11.725,14.457-11.725c8.261,0,14.189,4.264,14.189,11.258v0.6h-9.66v-0.6c0-2.132-1.266-3.531-4.396-3.531
			c-2.864,0-4.197,0.933-4.197,2.865c0,1.333,0.666,1.999,2.198,2.332l10.193,2.465c4.729,1.132,7.661,4.13,7.661,8.927
			C783.086,95.969,776.823,101.166,767.497,101.166z"/>
	</g>
</g>
</svg>
